HIERARCHY
ROOT Hips
{
	OFFSET -14.64140 90.27770 -84.91600
	CHANNELS 6 Xposition Yposition Zposition Zrotation Xrotation Yrotation
	JOINT Spine
	{
		OFFSET 0.00000 13.20850 -1.60436
		CHANNELS 3 Zrotation Xrotation Yrotation
		JOINT Spine1
		{
			OFFSET 0.00000 8.61716 0.00000
			CHANNELS 3 Zrotation Xrotation Yrotation
			JOINT Spine2
			{
				OFFSET 0.00000 8.61717 0.00000
				CHANNELS 3 Zrotation Xrotation Yrotation
				JOINT Spine3
				{
					OFFSET 0.00000 8.61717 0.00000
					CHANNELS 3 Zrotation Xrotation Yrotation
					JOINT Neck
					{
						OFFSET 0.00000 11.07920 1.10792
						CHANNELS 3 Zrotation Xrotation Yrotation
						JOINT Neck1
						{
							OFFSET 0.00000 7.08032 0.00000
							CHANNELS 3 Zrotation Xrotation Yrotation
							JOINT Head
							{
								OFFSET 0.00000 7.08031 0.00000
								CHANNELS 3 Zrotation Xrotation Yrotation
								End site
								{
									OFFSET 0.00000 0.00000 0.00000
								}
							}
						}
					}
					JOINT RightShoulder
					{
						OFFSET -0.01000 7.91373 5.19711
						CHANNELS 3 Zrotation Xrotation Yrotation
						JOINT RightArm
						{
							OFFSET -18.41580 0.00000 0.00000
							CHANNELS 3 Zrotation Xrotation Yrotation
							JOINT RightForeArm
							{
								OFFSET -29.11090 0.00000 0.00000
								CHANNELS 3 Zrotation Xrotation Yrotation
								JOINT RightHand
								{
									OFFSET -24.65040 0.00000 0.00000
									CHANNELS 3 Zrotation Xrotation Yrotation
									JOINT RightHandThumb1
									{
										OFFSET -5.35114 -0.85590 3.97906
										CHANNELS 3 Zrotation Xrotation Yrotation
										JOINT RightHandThumb2
										{
											OFFSET -4.52789 0.00000 0.00000
											CHANNELS 3 Zrotation Xrotation Yrotation
											JOINT RightHandThumb3
											{
												OFFSET -2.46976 0.00000 0.00000
												CHANNELS 3 Zrotation Xrotation Yrotation
												End site
												{
													OFFSET 0.00000 0.00000 0.00000
												}
											}
										}
									}
									JOINT RightHandIndex1
									{
										OFFSET -14.26970 0.00000 2.88139
										CHANNELS 3 Zrotation Xrotation Yrotation
										JOINT RightHandIndex2
										{
											OFFSET -5.48836 0.00000 0.00000
											CHANNELS 3 Zrotation Xrotation Yrotation
											JOINT RightHandIndex3
											{
												OFFSET -3.01859 0.00000 0.00000
												CHANNELS 3 Zrotation Xrotation Yrotation
												End site
												{
													OFFSET 0.00000 0.00000 0.00000
												}
											}
										}
									}
									JOINT RightHandMiddle1
									{
										OFFSET -14.26970 0.00000 -0.09147
										CHANNELS 3 Zrotation Xrotation Yrotation
										JOINT RightHandMiddle2
										{
											OFFSET -6.17441 0.00000 0.00000
											CHANNELS 3 Zrotation Xrotation Yrotation
											JOINT RightHandMiddle3
											{
												OFFSET -3.56743 0.00000 0.00000
												CHANNELS 3 Zrotation Xrotation Yrotation
												End site
												{
													OFFSET 0.00000 0.00000 0.00000
												}
											}
										}
									}
									JOINT RightHandRing1
									{
										OFFSET -12.69180 0.00000 -3.06433
										CHANNELS 3 Zrotation Xrotation Yrotation
										JOINT RightHandRing2
										{
											OFFSET -5.62556 0.00000 0.00000
											CHANNELS 3 Zrotation Xrotation Yrotation
											JOINT RightHandRing3
											{
												OFFSET -3.56744 0.00000 0.00000
												CHANNELS 3 Zrotation Xrotation Yrotation
												End site
												{
													OFFSET 0.00000 0.00000 0.00000
												}
											}
										}
									}
									JOINT RightHandPinky1
									{
										OFFSET -11.11390 0.00000 -6.03719
										CHANNELS 3 Zrotation Xrotation Yrotation
										JOINT RightHandPinky2
										{
											OFFSET -4.52789 0.00000 0.00000
											CHANNELS 3 Zrotation Xrotation Yrotation
											JOINT RightHandPinky3
											{
												OFFSET -2.46976 0.00000 0.00000
												CHANNELS 3 Zrotation Xrotation Yrotation
												End site
												{
													OFFSET 0.00000 0.00000 0.00000
												}
											}
										}
									}
								}
							}
						}
					}
					JOINT LeftShoulder
					{
						OFFSET 0.01000 7.91373 5.19711
						CHANNELS 3 Zrotation Xrotation Yrotation
						JOINT LeftArm
						{
							OFFSET 18.41580 0.00000 0.00000
							CHANNELS 3 Zrotation Xrotation Yrotation
							JOINT LeftForeArm
							{
								OFFSET 29.11090 0.00000 0.00000
								CHANNELS 3 Zrotation Xrotation Yrotation
								JOINT LeftHand
								{
									OFFSET 24.65040 0.00000 0.00000
									CHANNELS 3 Zrotation Xrotation Yrotation
									JOINT LeftHandThumb1
									{
										OFFSET 5.35114 -0.85590 3.97906
										CHANNELS 3 Zrotation Xrotation Yrotation
										JOINT LeftHandThumb2
										{
											OFFSET 4.52789 0.00000 0.00000
											CHANNELS 3 Zrotation Xrotation Yrotation
											JOINT LeftHandThumb3
											{
												OFFSET 2.46977 0.00000 0.00000
												CHANNELS 3 Zrotation Xrotation Yrotation
												End site
												{
													OFFSET 0.00000 0.00000 0.00000
												}
											}
										}
									}
									JOINT LeftHandIndex1
									{
										OFFSET 14.26970 0.00000 2.88139
										CHANNELS 3 Zrotation Xrotation Yrotation
										JOINT LeftHandIndex2
										{
											OFFSET 5.48836 0.00000 0.00000
											CHANNELS 3 Zrotation Xrotation Yrotation
											JOINT LeftHandIndex3
											{
												OFFSET 3.01859 0.00000 0.00000
												CHANNELS 3 Zrotation Xrotation Yrotation
												End site
												{
													OFFSET 0.00000 0.00000 0.00000
												}
											}
										}
									}
									JOINT LeftHandMiddle1
									{
										OFFSET 14.26970 0.00000 -0.09147
										CHANNELS 3 Zrotation Xrotation Yrotation
										JOINT LeftHandMiddle2
										{
											OFFSET 6.17440 0.00000 0.00000
											CHANNELS 3 Zrotation Xrotation Yrotation
											JOINT LeftHandMiddle3
											{
												OFFSET 3.56744 0.00000 0.00000
												CHANNELS 3 Zrotation Xrotation Yrotation
												End site
												{
													OFFSET 0.00000 0.00000 0.00000
												}
											}
										}
									}
									JOINT LeftHandRing1
									{
										OFFSET 12.69180 0.00000 -3.06433
										CHANNELS 3 Zrotation Xrotation Yrotation
										JOINT LeftHandRing2
										{
											OFFSET 5.62556 0.00000 0.00000
											CHANNELS 3 Zrotation Xrotation Yrotation
											JOINT LeftHandRing3
											{
												OFFSET 3.56744 0.00000 0.00000
												CHANNELS 3 Zrotation Xrotation Yrotation
												End site
												{
													OFFSET 0.00000 0.00000 0.00000
												}
											}
										}
									}
									JOINT LeftHandPinky1
									{
										OFFSET 11.11390 0.00000 -6.03719
										CHANNELS 3 Zrotation Xrotation Yrotation
										JOINT LeftHandPinky2
										{
											OFFSET 4.52789 0.00000 0.00000
											CHANNELS 3 Zrotation Xrotation Yrotation
											JOINT LeftHandPinky3
											{
												OFFSET 2.46976 0.00000 0.00000
												CHANNELS 3 Zrotation Xrotation Yrotation
												End site
												{
													OFFSET 0.00000 0.00000 0.00000
												}
											}
										}
									}
								}
							}
						}
					}
					JOINT pCube4
					{
						OFFSET 0.00000 10.91090 1.10792
						CHANNELS 3 Zrotation Xrotation Yrotation
						End site
						{
							OFFSET 0.00000 0.00000 0.00000
						}
					}
				}
			}
		}
	}
	JOINT RightUpLeg
	{
		OFFSET -9.98441 0.00000 0.00000
		CHANNELS 3 Zrotation Xrotation Yrotation
		JOINT RightLeg
		{
			OFFSET 0.00000 -42.11790 0.00000
			CHANNELS 3 Zrotation Xrotation Yrotation
			JOINT RightFoot
			{
				OFFSET 0.00000 -45.00020 -0.00001
				CHANNELS 3 Zrotation Xrotation Yrotation
				JOINT RightForeFoot
				{
					OFFSET 0.00000 -3.74820 0.00000
					CHANNELS 3 Zrotation Xrotation Yrotation
					JOINT RightToeBase
					{
						OFFSET 0.00000 0.06325 14.43120
						CHANNELS 3 Zrotation Xrotation Yrotation
						End site
						{
							OFFSET 0.00000 0.00000 0.00000
						}
					}
				}
			}
		}
	}
	JOINT LeftUpLeg
	{
		OFFSET 9.98441 0.00000 0.00000
		CHANNELS 3 Zrotation Xrotation Yrotation
		JOINT LeftLeg
		{
			OFFSET 0.00000 -42.11800 0.00000
			CHANNELS 3 Zrotation Xrotation Yrotation
			JOINT LeftFoot
			{
				OFFSET 0.00000 -45.00070 0.00000
				CHANNELS 3 Zrotation Xrotation Yrotation
				JOINT LeftForeFoot
				{
					OFFSET 0.00000 -3.74824 0.00000
					CHANNELS 3 Zrotation Xrotation Yrotation
					JOINT LeftToeBase
					{
						OFFSET 0.00000 0.06325 14.43110
						CHANNELS 3 Zrotation Xrotation Yrotation
						End site
						{
							OFFSET 0.00000 0.00000 0.00000
						}
					}
				}
			}
		}
	}
}
MOTION
Frames: 4
Frame Time: 0.050000
-0.045297889176119634 0.012224515341975222 -0.02027314649364717 0.009625656192918108 0.026000721634881777 0.04376911237327343 4.05871401428912 4.361063370224897 -1.8970289237253248 -0.9277151912377103 3.9139135203472106 0.448346472494631 -0.6636289859965274 -0.9423192539001967 0.39971550584197807 -0.5869202744441885 0.15897496717271134 -0.3906885579266725 -1.0139519194046334 13.749960283220252 1.312241047081834 0.2375066822759168 -0.9296072660260041 3.270425074957149 0.1330939920432581 -17.841686915154902 0.21950773533478363 -8.26567334244817 2.9499758271717833 -16.933208957211427 80.56240170382985 15.306483857760163 2.3863898047623984 -0.6634646756696173 6.026326852710634 55.25468087652578 14.301722410146962 -0.1512838086912961 -1.1902412864648957 4.49906529296236 -0.13556619232791925 -1.5860264406303222 0.012424676240834343 0.022315772223386446 -56.26400554198149 -0.014486183541706272 0.008484924504482424 -56.21154065242135 -38.81038049756966 0.02734065750172386 0.027422948803391304 0.037126752447364825 0.0016161760097656152 0.047827645681144774 0.025372788566393314 -0.017615163235974146 -0.0031020804227048933 -36.68209170615461 0.03861480401996237 -0.0009663506407387663 0.021630795680437423 -0.020190510247782303 0.015114113381529974 -0.03994596786855653 0.04228292827718446 -0.043552618945434454 -19.712751729584365 -0.02891246838866068 0.0026874192944799304 -0.010300986465698271 0.01122322732620401 -0.04650903786948908 0.011932205029041026 -0.0007472358522508984 0.005867082072590503 24.07865576927664 0.021914190717091882 -0.03578412664323436 28.914721813835932 -0.017188720131900263 0.0025133271036092138 28.865418656964312 -0.0038014688633986435 0.01032091872570592 10.427541802299979 2.3493700550127414 14.96827767396594 -72.78520300779039 25.52932900847771 -18.001689212725985 16.75842458836054 -6.826903742367573 -71.97316650761208 -7.132861282230762 1.0673541961429431 -2.603041557335295 -0.5069261969314806 0.024724118753468666 -8.150951439973369 0.030441156501875993 0.03868258807561336 44.556047361978294 -0.005780806534102574 0.0022488611173955998 44.594480629998046 12.474545708062317 0.021650057869934534 -0.017511336972650074 0.033677238941938456 0.00016637820586245822 0.022314211975785456 -0.01651615054103554 0.03401390969190879 0.025145647677979964 11.143332553400581 0.04316304253775692 -0.020609699070842084 -0.04865355215178681 -0.010800040953802477 0.044116114606352015 0.020573053020091856 -0.03235258433629082 -0.024666980231435057 4.7522471562620145 0.0015778628962453954 -0.004272008695331808 0.006175264484836034 -0.041213429773826055 0.045785762767115656 0.014681374644618442 0.024917886763358234 0.026063774419958923 -5.563355943454949 -0.04577551543337893 -0.03853636262708976 -6.680973754389034 -0.01837099235460767 0.03174770837891484 -6.6857365068945915 -0.011417172749917028 -0.028239622015026666 0.03631520965889929 0.043487836549773 0.04045400854585824 8.030338877608076 3.4691486704528898 -19.254907347822563 -0.033903824338919704 10.402296799350484 0.0054794704366439625 -5.636254185266748 -15.625891763695662 3.230144256589277 -0.021648164261865166 0.03943901282569092 -0.012091075153173073 0.017423334615960576 4.680398982998749 -0.015374271737501322 12.438066145367907 -8.269658243831026 6.900324942479831 0.028486917469318612 46.35520147550298 0.012697224844322627 -4.372316789949848 -14.699943523069244 -3.8296274692150014 -0.029782861550290297 -0.03395271900389854 -0.03002619959371685 -0.022816065333532917 -10.783955582031668 -0.03266850186366192 
-0.046715825489232435 -0.029163321048710517 -0.012396444058678468 0.024692530207467495 0.011367413056640312 0.03445445978911895 4.254343897869833 4.2556689249748745 -1.8816654898173488 -0.8849585958712499 3.9376302812800903 0.4190374344897144 -0.6731509590137208 -1.0203353044487973 0.45606128673894936 -0.36379596740061243 0.16112572788006677 -0.3618617049674722 -0.771078992962027 13.903143089349241 0.6987090690512777 0.26899158279232094 -0.8951878573193449 1.9670145358285178 0.3924254714883715 -17.915212342256975 0.09483167359767969 -8.506277694692923 2.997077499915124 -17.155698217622213 80.71345347043724 15.382300758610585 2.268215034112989 -0.5218574564913716 5.761601730486786 54.53921137803909 14.409414078417473 -0.17458261581052262 -0.9607010018110692 4.544038877974521 -0.1570746385004885 -1.5845123393525418 0.031994474756310225 0.03078361355025688 -56.234391332965416 -0.01789591472998695 0.002500223524900236 -56.283581501002296 -38.7201191591247 0.0027356272064904107 0.0014836724683039114 -0.021695539549633214 0.048691989347036155 -0.03380171633852089 0.030275898704591152 -0.04015250421733548 -0.020873015964283925 -36.66479437958952 0.024490024612280517 0.034835226267209744 0.022165621005703403 0.034517547158433984 -0.006502850175907736 -0.02422518256830645 -0.008267686960348382 0.022805796128836694 -19.741667670595046 0.0351588976580378 0.03561124772783582 0.010244243937114185 0.016517787400224398 -0.03365660317065606 -0.04619124994383944 -0.028319261803298627 0.0017852654120254954 24.08343391572829 -0.001766626020663812 -0.030730735419913308 28.890165364051153 -0.010370440117041265 0.0032141352253251304 28.85264756111755 -0.03997035486998 -0.04373328500713871 10.251113177623385 2.357959485578393 14.951076000680345 -72.82747189834971 26.36615766450761 -16.848173022935207 17.761400807902586 -8.281105113073297 -73.70055019162773 -6.174860312468103 1.5785883049730391 -3.8872522464284427 -0.476444658298149 0.11661378856037533 -8.103105806504631 0.004540667297913225 0.02139067921641352 44.54592037710693 0.0025125113724546243 -0.01045300263994246 44.61401990074639 12.423299451661109 -0.027111441281150183 0.011239092072026634 0.04512550307034532 -0.02222702181760266 0.0140722174286843 0.012417563276759372 0.035644835854536004 0.005922233104197451 11.098307565338784 -0.01921962131145081 -0.008834226658390919 0.003452679930046995 -0.0013517062914281967 0.0051665781418893005 -0.003618542267884469 -0.03368857876632046 -0.011240641387092394 4.764654419757472 -0.014507472218858343 -0.0225746611958287 -0.014906174635774514 0.048140936228551874 0.04691637017309688 -0.047194830205425656 -0.017903363060597515 0.04614584869402088 -5.621049383240373 0.008788024089975255 0.03330407388013653 -6.770282474877721 0.04063284482491267 0.024756357877290976 -6.717807893606382 -0.026021674320176536 0.030522150383138547 0.0481428020770529 -0.03855803946569185 0.04208818232376706 8.05495657936971 3.470970832570468 -19.186772174844997 -0.008956406267043965 10.429756926208375 0.004458348683658419 -5.651681655198749 -15.698713559335705 3.155134480271574 0.02677920023630286 0.018004620372613522 0.007202752816143734 -0.03468911406525589 4.658248283981425 -0.0067850555355618795 12.49367612480977 -8.23179826564115 6.8873772147859045 0.03248059094763528 46.40209964498546 0.016042241819617477 -4.357015514122463 -14.788841197186033 -3.807834769524797 0.02889586938894662 -0.006418932863342344 -0.02674546689856589 0.04000737998972776 -10.744908888129014 -0.01618568150432749 
-0.00957577568406043 0.017923791147437133 0.020858283142043216 -0.0031549435035337146 -0.010194414450116335 -0.0359804073638317 4.480437757956473 4.182378012424169 -1.8623771110211333 -0.9038124337596053 3.8965915492575824 0.4234112648929345 -0.6730187896454134 -1.0174388913552537 0.43709232404854503 -0.24348486941432979 0.20201185867309215 -0.3673615583932774 -0.5580022075914879 13.898706322411288 0.10555612119594676 0.3589642570079725 -0.9878524587475809 0.5970695228648031 0.608119837976799 -18.016923578309534 -0.041079624957346614 -8.671783500406924 3.009803673892409 -17.2913252363198 80.97161702326312 15.25527721842945 2.026785637989658 -0.2754378889596813 5.614344755958915 53.46034577464045 14.636427657739805 -0.155196584001576 -0.716698921834199 4.5439110956099205 -0.09931475203128165 -1.6144147530281638 -0.03593107827612074 0.0004482483160673556 -56.2342490075537 -0.04027824886782071 0.012564948354640263 -56.2481743002535 -38.81252732560279 -0.0010699541377667903 -0.039747652091323527 -0.005595840197871139 -0.00029126289551200817 -0.02945792088606059 0.010064229454572143 0.01011578964570832 0.0034535706120691714 -36.72216562876286 0.023868595581223753 -0.046216666628161915 0.04320464607823094 0.001856020085556731 0.044768665735321934 0.026890320002016355 0.02773746681340217 -0.024005566269789655 -19.764932472989027 0.013061991376716457 0.040625395663757585 -0.011417345774607561 0.02580734179391118 -0.019080336612350833 -0.006141125826429354 0.0064920510258138645 0.012605624054459004 24.10338581851327 -0.007794399770443358 -0.019439115759934664 28.854453065200634 0.047224492889200255 -0.01680362803998547 28.84117535344559 0.028836844312544692 -0.030940925964041143 10.038783212730305 2.2803336300754933 14.99665166195645 -72.96091141286041 27.13747650459278 -15.76888677564578 18.181958343649995 -8.92690523080564 -75.5524626729398 -5.564586549470623 2.016043323975591 -5.064533221493879 -0.4444660126025831 0.08627294061615118 -8.139197543994754 -0.03216549659057881 -0.002668124833152578 44.60096849568393 -0.03701561150393757 0.03129275226738378 44.61070185376517 12.424888585927777 0.04670148909233267 0.029973299855001852 0.005071537047263453 0.015466117737957561 -0.017335782900072302 -0.03195122188652393 -0.03591959015194794 -0.016924185702055713 11.151704640480908 -0.01759721490856943 0.004873823183532689 0.049622352240025765 0.03635985523551772 -0.011240100008514218 -0.016887558424495016 -0.03826412892831078 0.031162544197804898 4.820615408566701 -0.01573336601929873 -0.009470443009608684 0.019435666577334858 -0.010930734664664422 0.0062229692765735445 0.0153994891511555 -0.004209055198395409 -0.044305994855555614 -5.58782748535865 -0.020159579883400183 -0.02077223895477591 -6.704941441414768 -0.035042398696539453 0.040276044899777014 -6.723870686186183 0.028962745821286454 0.039648754462366376 -0.01220688384663265 -0.0046702391317803614 0.001536739530190337 8.041003431159362 3.5008473834036486 -19.24824130435162 0.019735084567664183 10.399768570083891 0.02139205767740426 -5.576452161255688 -15.616570358790934 3.196892842839977 -0.022325856272921794 0.03010853029302202 0.0277588002939812 0.005742535848215743 4.74327557813352 -0.023667603001636024 12.500250847935872 -8.231921692883812 6.904722842252188 0.014850393109203662 46.361194195062126 -0.04114687821435365 -4.298850643531922 -14.762555136638202 -3.865297322585343 0.031207839986157955 -0.022972887894625732 -0.01933383473298842 -0.030790431922638934 -10.730303724727872 0.003974826760247536 
0.03219119724888358 0.004676115192447063 -0.0002650041783853779 -0.006945736505215768 0.035321718670841884 -0.003314036732446414 4.662070672762978 4.162834499230547 -1.90759360202529 -0.8713904772250922 3.910968739249054 0.35364205546923133 -0.6760732704009239 -1.0542160931556965 0.44094339369852414 -0.11448027627056298 0.14259907709289038 -0.3258436230806279 -0.3042806325240721 13.928006787044287 -0.42880005293366763 0.32227025833516404 -0.9820532568949087 -0.6686518541506687 0.7726316271101894 -18.153895813085406 -0.07847136554225473 -8.83347403571273 2.988068689909852 -17.48593817171759 81.1954895871434 14.750840376758028 1.7719255718259266 -0.2094619435802088 5.477105741697188 52.37700139402901 14.775202573401927 -0.1708199982099643 -0.5323305521275027 4.480271160989233 -0.09495865480478399 -1.5788298615286054 -0.022057769260138013 0.03982900403310311 -56.276753742307825 0.041135583918400616 -0.01993410556341936 -56.224642924880534 -38.80174633854964 0.010377975484049406 0.026609390905674678 -0.04758966392069194 0.019037736906608344 -0.005868869874976846 -0.027968917042853772 0.032277585631649904 -0.011467404761820104 -36.69676230088218 0.007405212399616457 -0.04390873410009308 -0.04051709732075026 -0.022522389730026397 -0.003806593639566282 0.004855030131220484 -0.028094029454745935 0.01207775633157776 -19.783850186002162 -0.006188604467487894 0.014984104769402222 0.016991084884033374 -0.028047283864823223 0.019407558470060635 -0.01058207337434389 0.03114478943070643 0.0436321952677815 24.071396230116026 -0.032674021470868744 0.0057753801700088985 28.848905306130085 0.022246258121213256 -0.03433463139853635 28.87544394177806 -0.013173079812208926 -0.006644688482331837 9.875643520491618 2.281818091827714 14.964083997515004 -73.06537757835426 27.554821234375126 -14.848825218084974 17.79706516280055 -9.166885157700149 -76.30581069702188 -5.447547055880827 2.465596545231233 -5.861463008855428 -0.44572135711673644 0.06669971073464155 -8.172007789012818 -0.043190474893297005 -0.00017210997590687036 44.531954958089514 -0.004430211483764453 -0.030364936320982097 44.537806973917256 12.503230725401544 -0.005899155921928736 0.044891882656388694 0.02174901704215843 0.026410882381169447 -0.014907391024413654 -0.030274944019952968 -0.03905940507113037 -0.0484772686188205 11.065097277149166 -0.013284735723037863 -0.02787334302922706 0.005635817489391813 0.0047263948104496085 0.0375067608257328 -0.00992094314629572 0.019600037197987103 0.044699496285627784 4.796213623454957 -0.010349947970338594 -0.04765095852107522 0.008741704376772677 0.021007979794879218 -0.002880055978279222 0.026108655276035172 -0.04678531949601544 -0.030117553537479 -5.630901272541761 0.02195792049268203 -0.025061354374769765 -6.764428349056189 0.005990025399544331 -0.027642092786886556 -6.768508587295388 -0.04460180980224895 0.01685088361364289 -0.01699227171715367 -0.034415557214812334 0.012910455025132602 7.996914912978059 3.529719438773402 -19.193052892732968 -0.04862018461870191 10.416163452253228 -0.03077900366338211 -5.646755479455538 -15.64403053106765 3.1727475294701875 -0.021324446664543965 -0.030758859520951976 0.013375882037704378 0.015714488787451422 4.694805269292086 -0.03980994477276508 12.454121041381473 -8.221441301143434 6.846039304830319 -0.009411471080502267 46.42889463437888 0.047267514851954864 -4.34532035202868 -14.75204805447074 -3.811850807130452 0.03870041059221298 0.018658362296183954 -0.022884216575746873 0.03727277350479917 -10.76295654567877 -0.019308197478720562 
